<svg width="336" height="198" viewBox="0 0 336 198" fill="none" xmlns="http://www.w3.org/2000/svg">
<rect width="336" height="197" transform="translate(0 0.666504)" fill="#FFD4D0"/>
<g clip-path="url(#clip0_1_536)">
<path d="M146.282 127.358H146.238C146.01 127.359 145.781 127.345 145.555 127.314C144.169 127.147 142.893 126.478 141.967 125.433C141.041 124.389 140.53 123.041 140.53 121.644C140.53 120.248 141.041 118.9 141.967 117.855C142.893 116.81 144.169 116.141 145.555 115.974V104.007H125.832V133.152H139.281C139.389 132.82 139.488 132.481 139.604 132.149C140.093 130.74 141.277 130.088 142.46 130.088C144.007 130.088 145.553 131.197 145.553 133.152H150.161V131.226C150.159 130.199 149.75 129.214 149.022 128.488C148.295 127.763 147.309 127.356 146.282 127.358ZM140.408 115.422L140.102 115.836L140.064 115.88C137.227 119.619 135.692 124.186 135.694 128.881V130.879C134.623 130.879 133.574 130.578 132.667 130.011C131.759 129.443 131.029 128.631 130.56 127.668C130.091 126.705 129.902 125.63 130.015 124.565C130.128 123.5 130.537 122.488 131.198 121.644L131.285 121.536C132.71 119.666 133.816 117.573 134.558 115.341C135.308 113.115 135.691 110.782 135.692 108.433V106.49C136.73 106.49 137.748 106.773 138.638 107.309C139.527 107.845 140.254 108.613 140.739 109.532C141.225 110.45 141.451 111.483 141.393 112.52C141.336 113.557 140.997 114.559 140.412 115.418L140.408 115.422Z" fill="#FC3314"/>
<path d="M82.3554 28.0896H72.9592V56.4215H82.3554V51.1841C82.3554 51.1841 78.9864 49.6427 77.7911 44.7075C77.7911 44.7075 82.7621 43.2794 85.4429 49.3696C85.3857 51.4993 85.0038 53.8428 84.1656 56.4237H91.7483C91.7483 56.4237 95.6362 40.5765 82.3554 28.0896ZM77.5095 43.1207H77.503C77.2085 40.7589 77.3898 37.7635 78.4675 33.9984C78.4675 33.9984 80.4891 35.3952 82.3511 38.2331C83.7873 40.4005 84.751 42.8463 85.1796 45.4113C85.0167 45.2386 81.9239 41.9485 77.5095 43.1207Z" fill="#FC3314"/>
<path d="M121.134 36.9496V33.3972C121.134 32.7002 120.997 32.01 120.731 31.366C120.464 30.722 120.074 30.1368 119.581 29.6439C119.089 29.151 118.504 28.76 117.86 28.4933C117.217 28.2267 116.527 28.0895 115.83 28.0896H101.272V56.4215H115.836C116.532 56.4217 117.222 56.2845 117.866 56.0179C118.509 55.7513 119.094 55.3604 119.586 54.8676C120.079 54.3748 120.469 53.7898 120.736 53.1459C121.002 52.502 121.139 51.8119 121.139 51.115V47.5626C121.139 46.8657 121.002 46.1756 120.736 45.5317C120.469 44.8879 120.079 44.3028 119.586 43.81C119.094 43.3173 118.509 42.9264 117.866 42.6598C117.222 42.3931 116.532 42.256 115.836 42.2561C117.242 42.255 118.589 41.6954 119.583 40.7003C120.576 39.7052 121.134 38.3561 121.134 36.9496ZM117.308 48.0138V48.5147C117.309 48.7066 117.272 48.8968 117.198 49.0743C117.125 49.2517 117.018 49.4129 116.882 49.5487C116.747 49.6844 116.585 49.792 116.408 49.8651C116.231 49.9383 116.041 49.9757 115.849 49.9752C115.181 49.9752 114.541 50.2405 114.069 50.7128C113.597 51.185 113.332 51.8256 113.332 52.4935V54.2206H110.802V45.0939H114.39C114.774 45.0932 115.153 45.1683 115.508 45.3148C115.862 45.4612 116.184 45.6763 116.455 45.9476C116.726 46.2189 116.941 46.541 117.088 46.8956C117.234 47.2502 117.309 47.6302 117.308 48.0138ZM117.308 37.1374C117.306 37.9107 116.998 38.6517 116.451 39.198C115.904 39.7443 115.163 40.0513 114.39 40.0519H110.802V32.8197L113.332 30.2895V32.6578C113.332 33.3256 113.598 33.966 114.069 34.4382C114.541 34.9104 115.181 35.1758 115.849 35.1761C116.041 35.1755 116.231 35.2129 116.408 35.286C116.585 35.3591 116.746 35.4666 116.882 35.6022C117.017 35.7378 117.125 35.8989 117.198 36.0763C117.271 36.2536 117.309 36.4436 117.308 36.6355V37.1374Z" fill="#FC3314"/>
<path d="M83.6082 66.9103V71.69C86.1426 74.1566 87.8305 77.3635 88.4293 80.8501C87.7746 81.0024 87.1045 81.0782 86.4324 81.0757C84.4335 81.0759 82.4907 80.414 80.9071 79.1935C79.3235 77.9729 78.1881 76.2621 77.6781 74.3282C78.3742 71.5501 79.769 68.9965 81.73 66.9103H72.5V95.2422H82.2489V90.4614C79.9435 88.2181 78.333 85.3575 77.6102 82.2221C79.696 81.6356 81.9228 81.8169 83.8863 82.7331C85.8499 83.6493 87.42 85.2397 88.3117 87.2155C87.6773 90.2248 86.2282 93.0016 84.1228 95.2422H93.3517V66.9103H83.6082Z" fill="#FC3314"/>
<path d="M170.556 28.0896H158.008V56.4215H170.556C171.469 56.4214 172.373 56.2412 173.217 55.8913C174.06 55.5414 174.827 55.0287 175.472 54.3823C176.118 53.7359 176.629 52.9687 176.978 52.1243C177.327 51.28 177.507 50.3751 177.506 49.4613V35.0487C177.507 34.1351 177.327 33.2304 176.978 32.3862C176.629 31.5421 176.117 30.775 175.471 30.1288C174.826 29.4826 174.06 28.9699 173.216 28.62C172.373 28.2701 171.469 28.0899 170.556 28.0896ZM173.192 42.3889C173.194 43.7134 172.71 44.9927 171.833 45.9845C170.844 47.1125 170.243 48.5287 170.243 50.0324V54.2238H167.762V32.5887C168.625 32.5861 169.476 32.7924 170.243 33.1899C171.132 33.6458 171.878 34.3388 172.399 35.1924C172.919 36.046 173.194 37.027 173.192 38.0269V42.3889Z" fill="#FC3314"/>
<path d="M148.602 33.6638V28.0896H129.63V56.4215H148.602V42.2561H145.885C145.281 42.256 144.683 42.3749 144.124 42.6062C143.566 42.8374 143.059 43.1764 142.632 43.6038C142.204 44.0312 141.866 44.5387 141.634 45.0972C141.403 45.6557 141.284 46.2543 141.284 46.8588L142.875 50.9164C143.02 51.284 143.072 51.6813 143.028 52.0739C142.984 52.4664 142.845 52.8422 142.623 53.1687C142.401 53.4951 142.102 53.7623 141.753 53.9469C141.404 54.1316 141.015 54.2281 140.621 54.2281H139.381V30.2895H141.283V37.8455L148.602 33.6638Z" fill="#FC3314"/>
<path d="M197.516 111.093V110.841C197.516 110.708 197.509 110.569 197.496 110.437C197.244 107.631 193.005 107.924 193.005 110.735V113.996C193.005 114.354 193.09 114.707 193.254 115.025C193.417 115.343 193.654 115.618 193.945 115.826C197.727 118.498 200.52 122.345 201.888 126.77L195.515 133.148H182.689V123.238H185.194C185.943 123.239 186.66 123.537 187.189 124.066C187.718 124.596 188.016 125.314 188.016 126.062V126.314C188.016 126.453 188.023 126.586 188.036 126.725C188.287 129.522 192.52 129.23 192.52 126.42V123.159C192.522 122.802 192.437 122.451 192.275 122.134C192.113 121.816 191.877 121.543 191.587 121.335C187.736 118.61 184.911 114.669 183.564 110.146L189.698 104.008H202.836V113.919H200.338C199.967 113.919 199.6 113.846 199.258 113.704C198.915 113.562 198.604 113.354 198.342 113.091C198.08 112.829 197.872 112.517 197.73 112.174C197.588 111.831 197.516 111.464 197.516 111.093Z" fill="#FC3314"/>
<path d="M203.198 37.4559H205.563V28.0896H186.521V56.4215H205.563V47.0553H203.198C202.848 47.0553 202.5 47.1245 202.177 47.2589C201.853 47.3933 201.558 47.5904 201.311 47.8387C201.063 48.0871 200.867 48.3819 200.733 48.7062C200.599 49.0306 200.531 49.3782 200.532 49.729V49.9654C200.532 51.096 200.083 52.1802 199.284 52.9796C198.485 53.779 197.401 54.2281 196.271 54.2281V44.0264H204.657V41.8276C204.657 41.2444 204.425 40.6851 204.013 40.2728C203.601 39.8604 203.042 39.6288 202.459 39.6288H201.622C201.333 39.629 201.047 39.6863 200.78 39.7974C200.514 39.9086 200.271 40.0714 200.068 40.2764C199.138 41.208 197.946 41.8319 196.63 41.8319H196.271V30.2895C197.401 30.2895 198.485 30.7386 199.284 31.538C200.083 32.3374 200.532 33.4216 200.532 34.5522V34.7875C200.531 35.138 200.6 35.485 200.734 35.8088C200.868 36.1326 201.065 36.4268 201.312 36.6746C201.56 36.9224 201.854 37.119 202.178 37.253C202.501 37.3871 202.848 37.456 203.198 37.4559Z" fill="#FC3314"/>
<path d="M231.475 37.4559H233.84V28.0896H214.8V56.4215H224.55V54.2983C224.549 54.0871 224.465 53.8846 224.316 53.7353C224.167 53.586 223.965 53.502 223.754 53.5017C221.243 53.5017 219.033 51.6159 218.857 49.1041C218.811 48.4553 218.899 47.8041 219.115 47.1908C219.332 46.5776 219.672 46.0155 220.115 45.5396C220.558 45.0637 221.094 44.6841 221.69 44.4245C222.286 44.1649 222.929 44.0308 223.579 44.0307H224.55H232.935V41.8276C232.935 41.5387 232.878 41.2527 232.768 40.9859C232.657 40.719 232.495 40.4766 232.291 40.2724C232.087 40.0682 231.844 39.9063 231.578 39.7958C231.311 39.6854 231.025 39.6286 230.736 39.6288H229.899C229.611 39.629 229.325 39.6863 229.058 39.7975C228.791 39.9086 228.549 40.0714 228.346 40.2764C227.415 41.208 226.224 41.8319 224.908 41.8319H224.55V36.0785C224.55 30.7968 220.203 30.2895 220.203 30.2895H224.549C225.678 30.2895 226.762 30.7386 227.561 31.538C228.36 32.3374 228.809 33.4216 228.809 34.5522V34.7875C228.809 35.4952 229.09 36.1739 229.59 36.6743C230.09 37.1747 230.768 37.4559 231.475 37.4559Z" fill="#FC3314"/>
<path d="M259.954 37.4559H262.319V28.0896H243.277V56.4215H262.319V43.0279H254.167V45C254.167 45.919 254.532 46.8003 255.182 47.4502C255.831 48.1 256.712 48.465 257.63 48.465C258.393 48.465 259.125 48.7683 259.665 49.3082C260.204 49.8481 260.507 50.5804 260.507 51.3439C260.507 52.1074 260.204 52.8396 259.665 53.3795C259.125 53.9194 258.393 54.2227 257.63 54.2227H253.027V30.2895C254.157 30.2895 255.241 30.7386 256.04 31.538C256.838 32.3374 257.287 33.4216 257.287 34.5522V34.7875C257.287 35.4952 257.568 36.1739 258.068 36.6743C258.568 37.1747 259.247 37.4559 259.954 37.4559Z" fill="#FC3314"/>
<path d="M115.679 66.9103H103.421V72.7392C103.421 73.4043 103.685 74.0421 104.155 74.5123C104.625 74.9826 105.263 75.2468 105.927 75.2468V95.2422H118.315C114.39 91.7632 111.519 87.9021 111.519 81.4017C111.52 73.4009 113.378 66.9103 115.679 66.9103Z" fill="#FC3314"/>
<path d="M195.749 95.2422H176.77V66.9103H182.519C183.045 66.9103 183.566 67.014 184.052 67.2156C184.537 67.4171 184.979 67.7125 185.35 68.0848C185.722 68.4572 186.016 68.8992 186.217 69.3855C186.418 69.8719 186.521 70.3931 186.52 70.9193V93.0477H188.686V88.2745C188.686 87.7758 188.784 87.282 188.975 86.8213C189.165 86.3606 189.445 85.942 189.797 85.5894C190.149 85.2368 190.568 84.9572 191.028 84.7665C191.489 84.5758 191.982 84.4778 192.481 84.4781H195.749C194.929 84.4781 194.266 86.8896 194.266 89.8602C194.266 92.8308 194.929 95.2422 195.749 95.2422Z" fill="#FC3314"/>
<path d="M129.63 66.9103V93.0423H126.295C125.761 93.0425 125.233 92.9373 124.739 92.7329C124.246 92.5285 123.798 92.2289 123.42 91.851C123.043 91.4732 122.743 91.0247 122.539 90.531C122.334 90.0373 122.229 89.5083 122.23 88.9739V87.4876C122.23 86.8672 122.476 86.2722 122.914 85.8335C123.353 85.3949 123.947 85.1484 124.567 85.1484H126.631V81.392C126.632 80.863 126.528 80.339 126.326 79.8501C126.124 79.3612 125.828 78.9169 125.455 78.5426C125.081 78.1684 124.637 77.8715 124.149 77.669C123.66 77.4665 123.137 77.3623 122.608 77.3625H119.925V95.2379H139.381V66.9103H129.63Z" fill="#FC3314"/>
<path d="M160.311 79.109C162.166 79.109 165.426 79.109 165.426 75.7509V70.9679C165.426 70.1675 165.621 69.3793 165.996 68.6721C166.37 67.9648 166.912 67.3599 167.574 66.9103H160.311V74.9499C160.311 75.4696 160.105 75.9681 159.738 76.3356C159.371 76.7032 158.873 76.9099 158.353 76.9102V66.9103H148.602V95.2422H158.353V80.4853C164.132 86.2689 161.184 95.2422 161.184 95.2422H167.574C167.574 83.3814 160.311 79.109 160.311 79.109Z" fill="#FC3314"/>
<path d="M219.674 65.4811C219.674 71.2766 218.742 77.2297 215.309 79.9153V72.1228C215.309 70.3616 214.61 68.6725 213.365 67.4272C212.121 66.1818 210.433 65.4822 208.672 65.4822H205.563V95.2422H215.313V94.234C215.315 92.7115 214.959 91.21 214.275 89.8501C213.591 88.4902 212.598 87.3098 211.375 86.4038C210.445 85.7099 209.69 84.8081 209.17 83.7703C208.65 82.7326 208.38 81.5877 208.381 80.4269V69.5095H209.82C210.296 69.5096 210.765 69.6208 211.19 69.8342C211.615 70.0477 211.984 70.3574 212.269 70.7389C212.553 71.1204 212.744 71.563 212.828 72.0315C212.911 72.5 212.884 72.9815 212.748 73.4376L211.729 76.8724C211.221 78.5785 210.964 80.3492 210.964 82.1292C210.964 82.7518 211.211 83.3489 211.651 83.7893C212.09 84.2298 212.687 84.4775 213.309 84.4781H217.334L222.371 73.6384C222.371 73.6384 223.072 87.8491 217.336 95.2422H224.55V65.4811H219.674Z" fill="#FC3314"/>
<path d="M253.116 65.6214V66.9092C253.116 66.9092 264.358 72.3398 257.647 88.7796C257.647 88.7796 256.519 68.6373 245.211 65.4811H242.104V95.2379H252.073C252.073 90.5242 250.351 85.973 247.231 82.4412C245.931 80.9675 245.213 79.0701 245.211 77.1044V69.9143C245.211 69.9143 247.287 76.039 250.928 80.2165C254.252 84.0366 255.898 90.1181 255.794 95.1828V95.3005H263.51V65.6214H253.116Z" fill="#FC3314"/>
<path d="M77.4405 103.775L72.8816 108.342V132.577H87.8464L92.4043 128.015V103.775H77.4405ZM87.8777 118.173C86.2972 119.012 84.9748 120.266 84.0527 121.8C83.1305 123.335 82.6434 125.091 82.6435 126.882V127.189C82.6435 127.533 82.5758 127.874 82.4442 128.191C82.3127 128.509 82.12 128.798 81.8769 129.041C81.6339 129.284 81.3454 129.477 81.0279 129.609C80.7104 129.74 80.37 129.808 80.0263 129.808C79.6827 129.808 79.3423 129.74 79.0248 129.609C78.7073 129.477 78.4188 129.284 78.1758 129.041C77.9327 128.798 77.74 128.509 77.6084 128.191C77.4769 127.874 77.4092 127.533 77.4092 127.189V118.173C78.9535 117.557 80.2777 116.491 81.2108 115.114C82.1438 113.737 82.6429 112.112 82.6435 110.448V109.153C82.6435 108.458 82.9192 107.792 83.41 107.301C83.9008 106.81 84.5665 106.534 85.2606 106.534C85.9547 106.534 86.6204 106.81 87.1112 107.301C87.602 107.792 87.8777 108.458 87.8777 109.153V118.173Z" fill="#FC3314"/>
<path d="M115.198 104.007H101.116V108.973C101.115 109.701 101.361 110.407 101.813 110.978C102.265 111.548 102.896 111.949 103.604 112.114C104.312 112.28 105.056 112.201 105.714 111.891C106.371 111.58 106.905 111.056 107.227 110.403L108.55 107.727C108.903 107.014 109.448 106.413 110.124 105.994C110.8 105.574 111.58 105.352 112.376 105.352C112.839 105.353 113.297 105.444 113.724 105.622C114.151 105.8 114.54 106.06 114.866 106.388C115.193 106.715 115.452 107.104 115.629 107.532C115.805 107.96 115.896 108.419 115.895 108.882V109.001C115.895 109.646 115.768 110.285 115.521 110.882C115.274 111.478 114.912 112.02 114.456 112.476C114 112.933 113.458 113.295 112.862 113.542C112.266 113.789 111.627 113.916 110.982 113.915H101.116C110.577 123.383 101.116 132.575 101.116 132.575H109.725V121.468H115.198C116.559 121.467 117.864 120.925 118.825 119.962C119.787 118.998 120.326 117.692 120.326 116.33V109.143C120.326 107.782 119.786 106.476 118.824 105.513C117.863 104.55 116.559 104.008 115.198 104.007Z" fill="#FC3314"/>
<path d="M153.211 125.793V125.785" stroke="#1F1F1F" stroke-width="0.62623" stroke-miterlimit="10"/>
<path d="M174.79 112.492V108.262C174.79 107.704 174.68 107.15 174.466 106.634C174.253 106.117 173.94 105.648 173.545 105.253C173.15 104.858 172.681 104.544 172.165 104.331C171.649 104.117 171.096 104.007 170.537 104.007H155.669V133.152H165.507V120.802C170.145 127.306 166.94 133.148 166.94 133.148H174.79C174.79 121.46 168.346 117.682 166.198 116.747H170.537C171.096 116.747 171.649 116.637 172.165 116.424C172.681 116.21 173.15 115.896 173.545 115.501C173.94 115.106 174.253 114.637 174.466 114.12C174.68 113.604 174.79 113.051 174.79 112.492ZM170.139 109.159C169.369 109.514 168.345 110.272 168.345 111.821V114.363H166.043V106.384H169.533C169.864 106.384 170.186 106.498 170.444 106.706C170.702 106.914 170.881 107.204 170.952 107.528C171.023 107.852 170.981 108.19 170.833 108.487C170.685 108.784 170.44 109.021 170.139 109.159Z" fill="#FC3314"/>
<path d="M231.504 103.612V108.38L228.448 111.437C227.62 112.266 226.175 112.125 225.632 111.087C225.499 110.836 225.43 110.557 225.43 110.272V105.561H224.39V133.148H216.329V131.982C216.329 127.154 217.389 122.416 219.125 117.912C219.612 116.644 219.968 114.807 219.968 112.144V105.56H214.466V106.581C215.544 106.979 216.475 107.698 217.132 108.642C217.789 109.585 218.141 110.707 218.142 111.857V112.073C218.142 113.566 217.55 114.998 216.496 116.054C215.441 117.11 214.011 117.704 212.519 117.705V103.608L231.504 103.612Z" fill="#FC3314"/>
<path d="M254.339 103.612V105.762C255.551 105.762 256.723 106.191 257.649 106.974C258.575 107.756 259.194 108.841 259.398 110.036C259.601 111.232 259.375 112.46 258.759 113.505C258.144 114.55 257.179 115.343 256.036 115.744C255.632 115.873 255.243 116.044 254.876 116.257C253.232 117.274 249.461 120.589 249.461 129.589H246.913V126.782C246.913 124.266 247.677 121.809 249.105 119.737L251.362 116.461C252.209 115.23 252.703 113.791 252.792 112.299C252.88 110.808 252.56 109.32 251.866 107.997C251.172 106.675 250.13 105.567 248.852 104.793C247.575 104.02 246.11 103.61 244.617 103.608H243.061V133.148H256.255C256.083 132.438 255.997 131.71 255.998 130.979C255.997 128.98 256.629 127.032 257.803 125.414C258.978 123.797 260.634 122.593 262.534 121.976V103.612H254.339Z" fill="#FC3314"/>
<path d="M89.0649 141.826H84.369C84.369 144.973 85.3992 148.05 87.3896 150.49C88.4896 151.824 89.0846 153.503 89.0703 155.233V168.861H87.2364L81.2783 141.826H73.2834L78.3537 164.869C78.6838 166.369 79.5162 167.712 80.713 168.673C81.9098 169.635 83.3991 170.159 84.9343 170.158H92.3994V141.826H89.0649Z" fill="#FC3314"/>
<path d="M118.986 141.826H112.412V142.198C112.412 145.868 113.765 149.38 116.109 152.205C117.605 154.009 118.986 156.324 118.986 158.724V166.646C118.986 166.646 112.781 162.148 112.781 152.582H112.645C112.182 152.582 111.724 152.673 111.297 152.85C110.87 153.027 110.482 153.286 110.155 153.613C109.828 153.94 109.569 154.329 109.392 154.756C109.215 155.183 109.124 155.641 109.124 156.104C109.123 157.825 109.54 159.521 110.337 161.046C111.039 162.387 111.405 163.879 111.405 165.393V168.189H110.06C108.377 162.854 104.487 148.066 110.717 141.824H101.116C101.116 141.824 108.792 162.475 101.116 170.156H113.083V159.194L116.369 170.156H121.397V141.826H118.986Z" fill="#FC3314"/>
<path d="M141.716 157.588L147.351 170.245H142.241L142.223 170.201C143.469 169.512 144.614 162.714 139.436 162.714L137.652 166.717C138.059 165.796 139.436 166.09 139.436 167.093V170.245H129.596L132.703 163.083C134.058 159.958 134.718 156.576 134.638 153.171C134.382 152.6 133.966 152.116 133.439 151.779C132.912 151.441 132.298 151.265 131.672 151.273C130.536 151.294 129.628 150.318 129.628 149.181V147.022C129.629 145.666 130.168 144.366 131.127 143.408C132.086 142.45 133.385 141.912 134.74 141.913C134.74 153.207 137.024 153.399 138.308 152.613C138.788 152.306 139.164 151.861 139.387 151.335L141.706 146.129C143.216 142.746 139.828 141.913 139.828 141.913H148.69L141.716 157.588Z" fill="#FC3314"/>
<path d="M170.509 141.824H167.338V142.198C167.34 143.707 167.767 145.185 168.569 146.464C167.743 148.437 166.863 150.541 166.386 151.677C166.284 151.921 166.117 152.131 165.902 152.285C165.688 152.439 165.435 152.53 165.172 152.549C164.909 152.567 164.646 152.512 164.412 152.39C164.178 152.268 163.983 152.083 163.848 151.857C163.075 150.561 162.458 147.691 162.458 141.824C161.103 141.825 159.804 142.363 158.846 143.322C157.887 144.281 157.349 145.582 157.349 146.938V151.952C158.656 150.923 160.125 151.016 161.181 151.703C161.7 152.038 162.109 152.517 162.359 153.082C162.922 154.347 163.221 155.714 163.237 157.099C163.254 158.484 162.987 159.858 162.454 161.136L158.656 170.243H168.494L180.348 141.822L170.509 141.824Z" fill="#FC3314"/>
<path d="M189.666 165.768C193.585 152.981 205.564 152.481 205.564 152.481V160.17C205.565 160.517 205.474 160.859 205.299 161.158C205.124 161.458 204.872 161.705 204.569 161.874C204.266 162.044 203.924 162.129 203.577 162.121C203.23 162.112 202.892 162.012 202.597 161.828C202.01 161.466 201.352 161.234 200.668 161.148C199.984 161.061 199.289 161.122 198.63 161.326C197.971 161.531 197.364 161.874 196.849 162.333C196.334 162.792 195.923 163.356 195.644 163.987L192.884 170.238H186.519V160.833L197.882 144.224H193.998C193.998 145.527 193.587 146.797 192.823 147.852C192.059 148.907 190.981 149.693 189.744 150.099L186.315 151.223V141.913H205.569V147.89C202.488 148.736 200.003 149.941 198 151.344C189.86 157.012 189.666 165.768 189.666 165.768Z" fill="#FC3314"/>
</g>
<defs>
<clipPath id="clip0_1_536">
<rect width="191" height="142.154" fill="white" transform="translate(72.5 28.0895)"/>
</clipPath>
</defs>
</svg>
